# xmcd CD database file
#
# Track frame offsets:
#	150
#	16200
#	31437
#	44669
#	58124
#	74757
#	85136
#	102521
#	123356
#	135401
#	150284
#
# Disc length: 2174 seconds
#
# Revision: 1
# Processed by: cddbd v1.5.2PL0 Copyright (c) Steve Scherf et al.
# Submitted via: CDex 1.51
#
DISCID=92087c0b
DTITLE=Louisiana Red - Sweet Blood Call [Reissued 2010]
DYEAR=1975
DGENRE=Blues
TTITLE0=The Whole World
TTITLE1=Had a Date with Barbara Last Night
TTITLE2=First Degree
TTITLE3=Sweetblood Call
TTITLE4=I Was Out Walking
TTITLE5=Thirty Dirty Women
TTITLE6=King Bee
TTITLE7=Death of Ealase
TTITLE8=Who Been Fooling You
TTITLE9=Going Home
TTITLE10=Too Poor to Die
EXTD=YEAR: 1975
EXTT0=
EXTT1=
EXTT2=
EXTT3=
EXTT4=
EXTT5=
EXTT6=
EXTT7=
EXTT8=
EXTT9=
EXTT10=
PLAYORDER=
